<?xml version="1.0" standalone="no"?>
<!DOCTYPE svg PUBLIC "-//W3C//DTD SVG 20010904//EN"
 "http://www.w3.org/TR/2001/REC-SVG-20010904/DTD/svg10.dtd">
<svg version="1.0" xmlns="http://www.w3.org/2000/svg"
 width="64.000000pt" height="64.000000pt" viewBox="0 0 64.000000 64.000000"
 preserveAspectRatio="xMidYMid meet">

<g transform="translate(0.000000,64.000000) scale(0.100000,-0.100000)"
fill="#000000" stroke="none">
<path d="M290 598 c24 -26 25 -32 4 -63 -10 -16 -26 -25 -43 -25 -23 -1 -24
-2 -8 -11 24 -14 62 11 71 46 7 28 -15 75 -35 75 -5 0 -1 -10 11 -22z"/>
<path d="M360 525 c-51 -36 -108 -68 -127 -71 -40 -8 -41 -16 -7 -43 42 -33
68 -26 156 41 113 86 121 94 108 118 -6 11 -16 20 -23 20 -7 0 -55 -29 -107
-65z"/>
<path d="M53 493 c-27 -10 -11 -48 57 -136 40 -52 72 -105 76 -124 7 -40 13
-41 38 -6 33 45 25 74 -41 154 -100 121 -103 124 -130 112z"/>
<path d="M412 417 c-41 -44 -31 -79 54 -184 59 -74 80 -94 97 -91 40 5 30 40
-36 129 -35 47 -70 104 -78 128 l-14 42 -23 -24z"/>
<path d="M489 399 c-9 -17 -7 -25 12 -45 12 -13 31 -26 41 -30 23 -7 68 20 68
41 0 25 -27 17 -34 -10 -7 -28 -36 -34 -36 -7 0 10 -9 25 -20 35 -12 10 -18
22 -15 27 3 6 4 10 1 10 -3 0 -10 -9 -17 -21z"/>
<path d="M540 412 c0 -5 9 -12 21 -15 13 -3 19 -1 16 6 -5 15 -37 22 -37 9z"/>
<path d="M36 294 c-24 -24 -20 -54 7 -54 25 1 57 22 57 39 0 6 5 11 11 11 5 0
7 5 4 10 -10 16 -62 12 -79 -6z"/>
<path d="M130 272 c0 -20 -33 -52 -55 -53 -14 -1 -15 -3 -4 -6 41 -11 95 35
70 60 -8 8 -11 8 -11 -1z"/>
<path d="M238 178 c-106 -92 -108 -96 -89 -127 13 -20 39 -7 131 66 41 33 93
66 114 73 l40 13 -28 23 c-47 41 -76 33 -168 -48z"/>
<path d="M339 133 c-13 -15 -12 -15 6 -6 11 6 27 13 35 16 10 4 8 6 -6 6 -12
1 -28 -6 -35 -16z"/>
<path d="M353 109 c-19 -20 -15 -47 8 -60 17 -9 25 -8 37 5 15 15 14 16 -5 16
-16 0 -23 7 -25 26 -2 20 -5 23 -15 13z"/>
<path d="M390 106 c0 -9 5 -16 10 -16 6 0 10 4 10 9 0 6 -4 13 -10 16 -5 3
-10 -1 -10 -9z"/>
<path d="M320 61 c0 -10 39 -46 43 -40 2 2 -7 14 -20 26 -13 12 -23 19 -23 14z"/>
</g>
</svg>
